<svg width="1372" height="486" viewBox="0 0 1372 486" fill="none" xmlns="http://www.w3.org/2000/svg">
<g filter="url(#filter0_d_626_579)">
<rect x="30" y="26" width="1312" height="426" rx="10" fill="white"/>
<rect x="30.5" y="26.5" width="1311" height="425" rx="9.5" stroke="#051238" stroke-opacity="0.2"/>
</g>
<line x1="194.5" y1="104" x2="194.5" y2="450" stroke="url(#paint0_linear_626_579)"/>
<line x1="358.5" y1="104" x2="358.5" y2="450" stroke="url(#paint1_linear_626_579)"/>
<line x1="522.5" y1="104" x2="522.5" y2="450" stroke="url(#paint2_linear_626_579)"/>
<line x1="686.5" y1="104" x2="686.5" y2="450" stroke="url(#paint3_linear_626_579)"/>
<line x1="849.5" y1="104" x2="849.5" y2="450" stroke="url(#paint4_linear_626_579)"/>
<line x1="1013.5" y1="104" x2="1013.5" y2="450" stroke="url(#paint5_linear_626_579)"/>
<line x1="1177.5" y1="104" x2="1177.5" y2="450" stroke="url(#paint6_linear_626_579)"/>
<rect x="42" y="141" width="1287" height="47" rx="23.5" fill="#00FF94"/>
<rect x="523" y="213" width="490" height="47" rx="23.5" fill="#051238"/>
<rect x="1014" y="282" width="163" height="47" rx="23.5" fill="#051238"/>
<path d="M103.8 170.984V169.304L108.728 164.912C109.488 164.232 109.752 163.632 109.752 163.064C109.752 161.912 108.96 161.056 107.816 161.056C106.616 161.056 105.768 161.992 105.8 163.048H103.816C103.816 160.744 105.472 159.24 107.856 159.24C110.072 159.24 111.728 160.832 111.728 163.088C111.728 164.736 111.048 165.4 109.736 166.552L106.784 169.168H111.728V170.984H103.8ZM116.454 171V162.36H123.958V171H122.03V164.168H118.382V171H116.454ZM128.429 171.24C126.549 171.24 125.533 170.056 125.533 168.632C125.533 167.376 126.133 166.52 127.501 166.048C128.413 165.752 129.749 165.568 131.261 165.344C131.189 164.352 130.669 163.888 129.493 163.888C128.717 163.888 127.893 164.216 127.605 165.096L125.845 164.544C126.269 163.088 127.461 162.12 129.493 162.12C131.029 162.12 132.253 162.584 132.821 163.728C133.125 164.336 133.149 164.952 133.149 165.696V171H131.461V169.84C130.725 170.8 129.805 171.24 128.429 171.24ZM127.421 168.608C127.421 169.24 127.901 169.704 128.813 169.704C130.125 169.704 130.853 168.872 131.045 168.272C131.205 167.88 131.229 167.328 131.237 166.928C129.861 167.144 129.077 167.264 128.469 167.472C127.805 167.72 127.421 168.048 127.421 168.608ZM137.208 171V164.072H134.32V162.36H142.024V164.072H139.136V171H137.208ZM150.836 162.36V171H148.988V165.36L144.876 171H143.332V162.36H145.18V167.856L149.308 162.36H150.836ZM155.885 171V162.36H157.813V165.768H161.693V162.36H163.621V171H161.693V167.576H157.813V171H155.885ZM169.59 171.24C166.966 171.24 165.182 169.4 165.182 166.776C165.182 163.944 166.934 162.12 169.478 162.12C172.158 162.12 173.726 164.104 173.502 167.216H167.246C167.398 168.64 168.166 169.432 169.478 169.432C170.422 169.432 171.126 169 171.502 168.2L173.406 168.776C172.742 170.344 171.254 171.24 169.59 171.24ZM167.294 165.76H171.55C171.382 164.408 170.75 163.808 169.558 163.808C168.262 163.808 167.518 164.48 167.294 165.76ZM174.455 169.488C175.383 169.488 175.695 168.928 175.927 167.344C176.143 165.936 176.239 164.304 176.327 162.36H182.759V169.488H183.631V172.92H181.807V171H176.271V172.92H174.455V169.488ZM177.039 169.488H180.839V163.872H178.015C177.951 165.152 177.847 166.608 177.703 167.632C177.591 168.536 177.455 169.064 177.039 169.488ZM188.972 171.24C186.348 171.24 184.564 169.4 184.564 166.776C184.564 163.944 186.316 162.12 188.86 162.12C191.54 162.12 193.108 164.104 192.884 167.216H186.628C186.78 168.64 187.548 169.432 188.86 169.432C189.804 169.432 190.508 169 190.884 168.2L192.788 168.776C192.124 170.344 190.636 171.24 188.972 171.24ZM186.676 165.76H190.932C190.764 164.408 190.132 163.808 188.94 163.808C187.644 163.808 186.9 164.48 186.676 165.76ZM193.677 169.384C194.629 169.56 194.829 169.16 195.013 168.144C195.269 166.72 195.429 164.568 195.557 162.36H201.917V171H199.997V164.168H197.253C197.141 165.568 196.957 167.76 196.741 168.88C196.381 170.76 195.645 171.44 193.677 171V169.384ZM203.956 171V162.36H205.884V165.768H209.764V162.36H211.692V171H209.764V167.576H205.884V171H203.956ZM217.549 171.24C214.949 171.24 213.253 169.352 213.253 166.68C213.253 163.968 214.997 162.12 217.549 162.12C220.157 162.12 221.861 164.008 221.861 166.68C221.861 169.376 220.133 171.24 217.549 171.24ZM215.293 166.68C215.293 168.36 216.061 169.432 217.549 169.432C219.077 169.432 219.821 168.304 219.821 166.68C219.821 165.008 219.061 163.928 217.549 163.928C215.997 163.928 215.293 165.048 215.293 166.68ZM226.427 171V162.36H233.931V171H232.003V164.168H228.355V171H226.427ZM239.801 171.24C237.201 171.24 235.505 169.352 235.505 166.68C235.505 163.968 237.249 162.12 239.801 162.12C242.409 162.12 244.113 164.008 244.113 166.68C244.113 169.376 242.385 171.24 239.801 171.24ZM237.545 166.68C237.545 168.36 238.313 169.432 239.801 169.432C241.329 169.432 242.073 168.304 242.073 166.68C242.073 165.008 241.313 163.928 239.801 163.928C238.249 163.928 237.545 165.048 237.545 166.68ZM248.375 170.984V169.304L253.303 164.912C254.063 164.232 254.327 163.632 254.327 163.064C254.327 161.912 253.535 161.056 252.391 161.056C251.191 161.056 250.343 161.992 250.375 163.048H248.391C248.391 160.744 250.047 159.24 252.431 159.24C254.647 159.24 256.303 160.832 256.303 163.088C256.303 164.736 255.623 165.4 254.311 166.552L251.359 169.168H256.303V170.984H248.375ZM266.078 168.096C265.478 168.4 264.694 168.576 263.862 168.576C262.078 168.576 261.006 167.752 260.702 166.232C260.566 165.576 260.566 164.76 260.566 164.456V162.36H262.518V164.456C262.518 164.704 262.518 165.208 262.622 165.648C262.822 166.504 263.326 166.88 264.318 166.88C265.086 166.88 265.67 166.656 266.078 166.344V162.36H268.014V171H266.078V168.096ZM272.473 171.24C270.593 171.24 269.577 170.056 269.577 168.632C269.577 167.376 270.177 166.52 271.545 166.048C272.457 165.752 273.793 165.568 275.305 165.344C275.233 164.352 274.713 163.888 273.537 163.888C272.761 163.888 271.937 164.216 271.649 165.096L269.889 164.544C270.313 163.088 271.505 162.12 273.537 162.12C275.073 162.12 276.297 162.584 276.865 163.728C277.169 164.336 277.193 164.952 277.193 165.696V171H275.505V169.84C274.769 170.8 273.849 171.24 272.473 171.24ZM271.465 168.608C271.465 169.24 271.945 169.704 272.857 169.704C274.169 169.704 274.897 168.872 275.089 168.272C275.249 167.88 275.273 167.328 275.281 166.928C273.905 167.144 273.121 167.264 272.513 167.472C271.849 167.72 271.465 168.048 271.465 168.608ZM282.836 171.24C280.164 171.24 278.612 169.288 278.604 166.68C278.612 164.032 280.236 162.12 282.86 162.12C284.82 162.12 286.276 163.176 286.684 164.88L284.764 165.4C284.468 164.472 283.716 163.928 282.836 163.928C281.324 163.928 280.652 165.096 280.644 166.68C280.652 168.328 281.388 169.432 282.836 169.432C283.86 169.432 284.42 168.952 284.716 168.064L286.684 168.504C286.148 170.264 284.764 171.24 282.836 171.24ZM290.37 171.24C288.49 171.24 287.474 170.056 287.474 168.632C287.474 167.376 288.074 166.52 289.442 166.048C290.354 165.752 291.69 165.568 293.202 165.344C293.13 164.352 292.61 163.888 291.434 163.888C290.658 163.888 289.834 164.216 289.546 165.096L287.786 164.544C288.21 163.088 289.402 162.12 291.434 162.12C292.97 162.12 294.194 162.584 294.762 163.728C295.066 164.336 295.09 164.952 295.09 165.696V171H293.402V169.84C292.666 170.8 291.746 171.24 290.37 171.24ZM289.362 168.608C289.362 169.24 289.842 169.704 290.754 169.704C292.066 169.704 292.794 168.872 292.986 168.272C293.146 167.88 293.17 167.328 293.178 166.928C291.802 167.144 291.018 167.264 290.41 167.472C289.746 167.72 289.362 168.048 289.362 168.608Z" fill="#051238"/>
<path d="M588.944 241.36C586.576 241.76 584.48 240.136 584.48 236.912C584.48 233.688 586.576 232 588.944 232.4V231.48H590.856V232.4C593.224 232 595.336 233.688 595.336 236.912C595.336 240.136 593.224 241.76 590.856 241.36V243H588.944V241.36ZM586.44 236.912C586.44 238.432 587.072 239.88 588.944 239.592V234.136C587.072 233.848 586.44 235.392 586.44 236.912ZM590.856 239.592C592.72 239.88 593.376 238.416 593.376 236.968C593.376 235.512 592.72 233.848 590.856 234.136V239.592ZM595.94 241.384C596.892 241.56 597.092 241.16 597.276 240.144C597.532 238.72 597.692 236.568 597.82 234.36H604.181V243H602.26V236.168H599.516C599.404 237.568 599.22 239.76 599.004 240.88C598.644 242.76 597.908 243.44 595.94 243V241.384ZM610.164 243.24C607.54 243.24 605.756 241.4 605.756 238.776C605.756 235.944 607.508 234.12 610.052 234.12C612.732 234.12 614.3 236.104 614.076 239.216H607.82C607.972 240.64 608.74 241.432 610.052 241.432C610.996 241.432 611.7 241 612.076 240.2L613.98 240.776C613.316 242.344 611.828 243.24 610.164 243.24ZM607.868 237.76H612.124C611.956 236.408 611.324 235.808 610.132 235.808C608.836 235.808 608.092 236.48 607.868 237.76ZM615.653 243L615.669 234.36H617.621V238.52L620.781 234.36H623.189L619.837 238.68L623.477 243H620.925L617.621 238.84V243H615.653ZM627.682 243.24C625.01 243.24 623.458 241.288 623.45 238.68C623.458 236.032 625.082 234.12 627.706 234.12C629.666 234.12 631.122 235.176 631.53 236.88L629.61 237.4C629.314 236.472 628.562 235.928 627.682 235.928C626.17 235.928 625.498 237.096 625.49 238.68C625.498 240.328 626.234 241.432 627.682 241.432C628.706 241.432 629.266 240.952 629.562 240.064L631.53 240.504C630.994 242.264 629.61 243.24 627.682 243.24ZM640.429 234.36V243H638.581V237.36L634.469 243H632.925V234.36H634.773V239.856L638.901 234.36H640.429ZM646.084 243.256C643.604 243.224 642.236 241.552 642.036 238.888C641.932 237.528 642.108 235.48 642.58 234.368C642.9 233.616 643.468 232.968 644.1 232.536C645.492 231.56 647.468 231.608 649.364 231.24L649.54 232.944C648.34 233.248 646.212 233.152 645.108 233.856C644.34 234.336 643.94 235.28 643.868 236.248C644.524 235.272 645.596 234.912 646.612 234.912C648.908 234.912 650.3 236.712 650.3 239.008C650.3 241.56 648.572 243.28 646.084 243.256ZM644.076 239.088C644.076 240.592 644.828 241.448 646.172 241.448C647.556 241.448 648.276 240.52 648.276 239.088C648.276 237.624 647.516 236.728 646.172 236.728C644.804 236.728 644.076 237.624 644.076 239.088ZM659.358 234.36V243H657.51V237.36L653.398 243H651.854V234.36H653.702V239.856L657.83 234.36H659.358ZM660.612 241.384C661.564 241.56 661.764 241.16 661.948 240.144C662.204 238.72 662.364 236.568 662.492 234.36H668.852V243H666.932V236.168H664.188C664.076 237.568 663.892 239.76 663.676 240.88C663.316 242.76 662.58 243.44 660.612 243V241.384ZM670.892 243V234.36H672.82V237.768H676.7V234.36H678.628V243H676.7V239.576H672.82V243H670.892ZM683.085 243.24C681.205 243.24 680.189 242.056 680.189 240.632C680.189 239.376 680.789 238.52 682.157 238.048C683.069 237.752 684.405 237.568 685.917 237.344C685.845 236.352 685.325 235.888 684.149 235.888C683.373 235.888 682.549 236.216 682.261 237.096L680.501 236.544C680.925 235.088 682.117 234.12 684.149 234.12C685.685 234.12 686.909 234.584 687.477 235.728C687.781 236.336 687.805 236.952 687.805 237.696V243H686.117V241.84C685.381 242.8 684.461 243.24 683.085 243.24ZM682.077 240.608C682.077 241.24 682.557 241.704 683.469 241.704C684.781 241.704 685.509 240.872 685.701 240.272C685.861 239.88 685.885 239.328 685.893 238.928C684.517 239.144 683.733 239.264 683.125 239.472C682.461 239.72 682.077 240.048 682.077 240.608ZM692.691 243V234.36H700.195V243H698.267V236.168H694.619V243H692.691ZM706.401 243.24C705.505 243.24 704.761 242.992 704.177 242.56V246.84H702.233V234.36H703.937V234.984C704.545 234.432 705.345 234.12 706.329 234.12C708.777 234.12 710.345 236.056 710.345 238.68C710.345 241.272 708.793 243.24 706.401 243.24ZM703.937 238.68C703.937 240.352 704.553 241.512 706.105 241.512C707.609 241.512 708.305 240.264 708.305 238.68C708.305 237.112 707.593 235.848 706.041 235.848C704.569 235.848 703.937 236.992 703.937 238.68ZM714.332 243.24C712.452 243.24 711.436 242.056 711.436 240.632C711.436 239.376 712.036 238.52 713.404 238.048C714.316 237.752 715.652 237.568 717.164 237.344C717.092 236.352 716.572 235.888 715.396 235.888C714.62 235.888 713.796 236.216 713.508 237.096L711.748 236.544C712.172 235.088 713.364 234.12 715.396 234.12C716.932 234.12 718.156 234.584 718.724 235.728C719.028 236.336 719.052 236.952 719.052 237.696V243H717.364V241.84C716.628 242.8 715.708 243.24 714.332 243.24ZM713.324 240.608C713.324 241.24 713.804 241.704 714.716 241.704C716.028 241.704 716.756 240.872 716.948 240.272C717.108 239.88 717.132 239.328 717.14 238.928C715.764 239.144 714.98 239.264 714.372 239.472C713.708 239.72 713.324 240.048 713.324 240.608ZM720.927 243L720.943 234.36H722.895V238.52L726.055 234.36H728.463L725.111 238.68L728.751 243H726.199L722.895 238.84V243H720.927ZM732.956 243.24C730.284 243.24 728.732 241.288 728.724 238.68C728.732 236.032 730.356 234.12 732.98 234.12C734.94 234.12 736.396 235.176 736.804 236.88L734.884 237.4C734.588 236.472 733.836 235.928 732.956 235.928C731.444 235.928 730.772 237.096 730.764 238.68C730.772 240.328 731.508 241.432 732.956 241.432C733.98 241.432 734.54 240.952 734.836 240.064L736.804 240.504C736.268 242.264 734.884 243.24 732.956 243.24ZM740.491 243.24C738.611 243.24 737.595 242.056 737.595 240.632C737.595 239.376 738.195 238.52 739.563 238.048C740.475 237.752 741.811 237.568 743.323 237.344C743.251 236.352 742.731 235.888 741.555 235.888C740.779 235.888 739.955 236.216 739.667 237.096L737.907 236.544C738.331 235.088 739.523 234.12 741.555 234.12C743.091 234.12 744.315 234.584 744.883 235.728C745.187 236.336 745.211 236.952 745.211 237.696V243H743.523V241.84C742.787 242.8 741.867 243.24 740.491 243.24ZM739.483 240.608C739.483 241.24 739.963 241.704 740.875 241.704C742.187 241.704 742.915 240.872 743.107 240.272C743.267 239.88 743.291 239.328 743.299 238.928C741.923 239.144 741.139 239.264 740.531 239.472C739.867 239.72 739.483 240.048 739.483 240.608ZM752.113 243V233.584L749.953 234.904V232.776L752.113 231.48H754.081V243H752.113ZM756.616 242.984V241.304L761.544 236.912C762.304 236.232 762.568 235.632 762.568 235.064C762.568 233.912 761.776 233.056 760.632 233.056C759.432 233.056 758.584 233.992 758.616 235.048H756.632C756.632 232.744 758.288 231.24 760.672 231.24C762.888 231.24 764.544 232.832 764.544 235.088C764.544 236.736 763.864 237.4 762.552 238.552L759.6 241.168H764.544V242.984H756.616ZM774.319 240.096C773.719 240.4 772.935 240.576 772.103 240.576C770.319 240.576 769.247 239.752 768.943 238.232C768.807 237.576 768.807 236.76 768.807 236.456V234.36H770.759V236.456C770.759 236.704 770.759 237.208 770.863 237.648C771.063 238.504 771.567 238.88 772.559 238.88C773.327 238.88 773.911 238.656 774.319 238.344V234.36H776.255V243H774.319V240.096ZM780.714 243.24C778.834 243.24 777.818 242.056 777.818 240.632C777.818 239.376 778.418 238.52 779.786 238.048C780.698 237.752 782.034 237.568 783.546 237.344C783.474 236.352 782.954 235.888 781.778 235.888C781.002 235.888 780.178 236.216 779.89 237.096L778.13 236.544C778.554 235.088 779.746 234.12 781.778 234.12C783.314 234.12 784.538 234.584 785.106 235.728C785.41 236.336 785.434 236.952 785.434 237.696V243H783.746V241.84C783.01 242.8 782.09 243.24 780.714 243.24ZM779.706 240.608C779.706 241.24 780.186 241.704 781.098 241.704C782.41 241.704 783.138 240.872 783.33 240.272C783.49 239.88 783.514 239.328 783.522 238.928C782.146 239.144 781.362 239.264 780.754 239.472C780.09 239.72 779.706 240.048 779.706 240.608ZM791.076 243.24C788.404 243.24 786.852 241.288 786.844 238.68C786.852 236.032 788.476 234.12 791.1 234.12C793.06 234.12 794.516 235.176 794.924 236.88L793.004 237.4C792.708 236.472 791.956 235.928 791.076 235.928C789.564 235.928 788.892 237.096 788.884 238.68C788.892 240.328 789.628 241.432 791.076 241.432C792.1 241.432 792.66 240.952 792.956 240.064L794.924 240.504C794.388 242.264 793.004 243.24 791.076 243.24ZM798.611 243.24C796.731 243.24 795.715 242.056 795.715 240.632C795.715 239.376 796.315 238.52 797.683 238.048C798.595 237.752 799.931 237.568 801.443 237.344C801.371 236.352 800.851 235.888 799.675 235.888C798.899 235.888 798.075 236.216 797.787 237.096L796.027 236.544C796.451 235.088 797.643 234.12 799.675 234.12C801.211 234.12 802.435 234.584 803.003 235.728C803.307 236.336 803.331 236.952 803.331 237.696V243H801.643V241.84C800.907 242.8 799.987 243.24 798.611 243.24ZM797.603 240.608C797.603 241.24 798.083 241.704 798.995 241.704C800.307 241.704 801.035 240.872 801.227 240.272C801.387 239.88 801.411 239.328 801.419 238.928C800.043 239.144 799.259 239.264 798.651 239.472C797.987 239.72 797.603 240.048 797.603 240.608ZM808.217 243V234.36H810.145V237.768H814.025V234.36H815.953V243H814.025V239.576H810.145V243H808.217ZM821.922 243.24C819.298 243.24 817.514 241.4 817.514 238.776C817.514 235.944 819.266 234.12 821.81 234.12C824.49 234.12 826.058 236.104 825.834 239.216H819.578C819.73 240.64 820.498 241.432 821.81 241.432C822.754 241.432 823.458 241 823.834 240.2L825.738 240.776C825.074 242.344 823.586 243.24 821.922 243.24ZM819.626 237.76H823.882C823.714 236.408 823.082 235.808 821.89 235.808C820.594 235.808 819.85 236.48 819.626 237.76ZM826.787 241.488C827.715 241.488 828.027 240.928 828.259 239.344C828.475 237.936 828.571 236.304 828.659 234.36H835.091V241.488H835.963V244.92H834.139V243H828.603V244.92H826.787V241.488ZM829.371 241.488H833.171V235.872H830.347C830.283 237.152 830.179 238.608 830.035 239.632C829.923 240.536 829.787 241.064 829.371 241.488ZM841.304 243.24C838.68 243.24 836.896 241.4 836.896 238.776C836.896 235.944 838.648 234.12 841.192 234.12C843.872 234.12 845.44 236.104 845.216 239.216H838.96C839.112 240.64 839.88 241.432 841.192 241.432C842.136 241.432 842.84 241 843.216 240.2L845.12 240.776C844.456 242.344 842.968 243.24 841.304 243.24ZM839.008 237.76H843.264C843.096 236.408 842.464 235.808 841.272 235.808C839.976 235.808 839.232 236.48 839.008 237.76ZM846.009 241.384C846.961 241.56 847.161 241.16 847.345 240.144C847.601 238.72 847.761 236.568 847.889 234.36H854.249V243H852.329V236.168H849.585C849.473 237.568 849.289 239.76 849.073 240.88C848.713 242.76 847.977 243.44 846.009 243V241.384ZM856.288 243V234.36H858.216V237.768H862.096V234.36H864.024V243H862.096V239.576H858.216V243H856.288ZM869.881 243.24C867.281 243.24 865.585 241.352 865.585 238.68C865.585 235.968 867.329 234.12 869.881 234.12C872.489 234.12 874.193 236.008 874.193 238.68C874.193 241.376 872.465 243.24 869.881 243.24ZM867.625 238.68C867.625 240.36 868.393 241.432 869.881 241.432C871.409 241.432 872.153 240.304 872.153 238.68C872.153 237.008 871.393 235.928 869.881 235.928C868.329 235.928 867.625 237.048 867.625 238.68Z" fill="white"/>
<path d="M1043.98 311V300.92H1045.67V305.596L1049.69 300.92H1051.76L1047.43 305.862L1052.06 311H1049.92L1045.67 306.296V311H1043.98ZM1052.61 314.36L1053.86 310.944L1050.8 303.44H1052.55L1054.67 308.851L1056.72 303.44H1058.41L1054.19 314.36H1052.61ZM1062.28 311.21C1061.5 311.21 1060.85 310.993 1060.34 310.615V314.36H1058.64V303.44H1060.13V303.986C1060.66 303.503 1061.36 303.23 1062.22 303.23C1064.36 303.23 1065.73 304.924 1065.73 307.22C1065.73 309.488 1064.38 311.21 1062.28 311.21ZM1060.13 307.22C1060.13 308.683 1060.67 309.698 1062.02 309.698C1063.34 309.698 1063.95 308.606 1063.95 307.22C1063.95 305.848 1063.33 304.742 1061.97 304.742C1060.68 304.742 1060.13 305.743 1060.13 307.22ZM1069.76 311.21C1067.42 311.21 1066.06 309.502 1066.06 307.22C1066.06 304.903 1067.48 303.23 1069.78 303.23C1071.5 303.23 1072.77 304.154 1073.13 305.645L1071.45 306.1C1071.19 305.288 1070.53 304.812 1069.76 304.812C1068.44 304.812 1067.85 305.834 1067.84 307.22C1067.85 308.662 1068.49 309.628 1069.76 309.628C1070.66 309.628 1071.15 309.208 1071.4 308.431L1073.13 308.816C1072.66 310.356 1071.45 311.21 1069.76 311.21ZM1078.42 311.21C1076.98 311.21 1075.73 310.573 1075.05 309.509L1076.38 308.62C1076.92 309.264 1077.58 309.628 1078.39 309.628C1079.24 309.628 1079.76 309.229 1079.76 308.599C1079.76 307.78 1078.92 307.773 1078.01 307.773H1077.45V306.436H1078.01C1078.86 306.436 1079.5 306.317 1079.5 305.638C1079.5 305.036 1078.99 304.798 1078.38 304.798C1077.66 304.798 1076.91 305.155 1076.35 305.589L1075.4 304.441C1076.24 303.699 1077.3 303.23 1078.47 303.23C1079.92 303.23 1081.24 304 1081.24 305.484C1081.24 306.058 1081.06 306.562 1080.64 307.031C1081.18 307.409 1081.48 308.046 1081.48 308.767C1081.48 310.349 1080.08 311.21 1078.42 311.21ZM1084.33 311.21C1082.69 311.21 1081.8 310.174 1081.8 308.928C1081.8 307.829 1082.32 307.08 1083.52 306.667C1084.32 306.408 1085.49 306.247 1086.81 306.051C1086.75 305.183 1086.29 304.777 1085.26 304.777C1084.59 304.777 1083.86 305.064 1083.61 305.834L1082.07 305.351C1082.44 304.077 1083.49 303.23 1085.26 303.23C1086.61 303.23 1087.68 303.636 1088.18 304.637C1088.44 305.169 1088.46 305.708 1088.46 306.359V311H1086.99V309.985C1086.34 310.825 1085.54 311.21 1084.33 311.21ZM1083.45 308.907C1083.45 309.46 1083.87 309.866 1084.67 309.866C1085.82 309.866 1086.45 309.138 1086.62 308.613C1086.76 308.27 1086.78 307.787 1086.79 307.437C1085.59 307.626 1084.9 307.731 1084.37 307.913C1083.79 308.13 1083.45 308.417 1083.45 308.907ZM1095.03 311.133C1092.82 311.483 1091.07 310.013 1091.07 307.22C1091.07 304.427 1092.82 302.957 1095.03 303.307V301.039H1096.53V303.307C1098.74 302.957 1100.49 304.427 1100.49 307.22C1100.49 310.013 1098.74 311.483 1096.53 311.133V314.15H1095.03V311.133ZM1092.78 307.22C1092.78 308.879 1093.57 309.859 1095.03 309.621V304.833C1093.52 304.581 1092.78 305.568 1092.78 307.22ZM1096.53 309.621C1097.98 309.859 1098.78 308.914 1098.78 307.22C1098.78 305.533 1098.04 304.581 1096.53 304.833V309.621ZM1104.86 311.21C1104.08 311.21 1103.43 310.993 1102.92 310.615V314.36H1101.22V303.44H1102.71V303.986C1103.24 303.503 1103.94 303.23 1104.8 303.23C1106.94 303.23 1108.31 304.924 1108.31 307.22C1108.31 309.488 1106.96 311.21 1104.86 311.21ZM1102.71 307.22C1102.71 308.683 1103.25 309.698 1104.6 309.698C1105.92 309.698 1106.53 308.606 1106.53 307.22C1106.53 305.848 1105.91 304.742 1104.55 304.742C1103.26 304.742 1102.71 305.743 1102.71 307.22ZM1115.61 303.44V311H1113.99V306.065L1110.39 311H1109.04V303.44H1110.66V308.249L1114.27 303.44H1115.61ZM1116.07 309.586C1116.91 309.74 1117.08 309.39 1117.24 308.501C1117.47 307.255 1117.61 305.372 1117.72 303.44H1123.28V311H1121.6V305.022H1119.2C1119.1 306.247 1118.94 308.165 1118.75 309.145C1118.44 310.79 1117.8 311.385 1116.07 311V309.586ZM1127.89 311.21C1125.59 311.21 1124.03 309.6 1124.03 307.304C1124.03 304.826 1125.56 303.23 1127.79 303.23C1130.13 303.23 1131.51 304.966 1131.31 307.689H1125.84C1125.97 308.935 1126.64 309.628 1127.79 309.628C1128.62 309.628 1129.23 309.25 1129.56 308.55L1131.23 309.054C1130.65 310.426 1129.34 311.21 1127.89 311.21ZM1125.88 306.415H1129.6C1129.46 305.232 1128.9 304.707 1127.86 304.707C1126.73 304.707 1126.07 305.295 1125.88 306.415ZM1132.06 311V303.44H1133.75V306.422H1137.14V303.44H1138.83V311H1137.14V308.004H1133.75V311H1132.06ZM1143.26 311.21C1140.93 311.21 1139.57 309.502 1139.56 307.22C1139.57 304.903 1140.99 303.23 1143.29 303.23C1145 303.23 1146.27 304.154 1146.63 305.645L1144.95 306.1C1144.69 305.288 1144.03 304.812 1143.26 304.812C1141.94 304.812 1141.35 305.834 1141.35 307.22C1141.35 308.662 1142 309.628 1143.26 309.628C1144.16 309.628 1144.65 309.208 1144.91 308.431L1146.63 308.816C1146.16 310.356 1144.95 311.21 1143.26 311.21Z" fill="white"/>
<rect x="1178" y="351" width="151" height="47" rx="23.5" fill="#051238"/>
<path d="M1189.01 380V369.92H1190.7V374.596L1194.72 369.92H1196.79L1192.46 374.862L1197.09 380H1194.94L1190.7 375.296V380H1189.01ZM1197.64 383.36L1198.88 379.944L1195.82 372.44H1197.58L1199.7 377.851L1201.75 372.44H1203.43L1199.22 383.36H1197.64ZM1207.31 380.21C1206.53 380.21 1205.88 379.993 1205.36 379.615V383.36H1203.66V372.44H1205.15V372.986C1205.69 372.503 1206.39 372.23 1207.25 372.23C1209.39 372.23 1210.76 373.924 1210.76 376.22C1210.76 378.488 1209.4 380.21 1207.31 380.21ZM1205.15 376.22C1205.15 377.683 1205.69 378.698 1207.05 378.698C1208.37 378.698 1208.98 377.606 1208.98 376.22C1208.98 374.848 1208.35 373.742 1207 373.742C1205.71 373.742 1205.15 374.743 1205.15 376.22ZM1214.79 380.21C1212.45 380.21 1211.09 378.502 1211.08 376.22C1211.09 373.903 1212.51 372.23 1214.81 372.23C1216.52 372.23 1217.8 373.154 1218.15 374.645L1216.47 375.1C1216.22 374.288 1215.56 373.812 1214.79 373.812C1213.46 373.812 1212.88 374.834 1212.87 376.22C1212.88 377.662 1213.52 378.628 1214.79 378.628C1215.68 378.628 1216.17 378.208 1216.43 377.431L1218.15 377.816C1217.69 379.356 1216.47 380.21 1214.79 380.21ZM1223.45 380.21C1222.01 380.21 1220.76 379.573 1220.08 378.509L1221.41 377.62C1221.95 378.264 1222.61 378.628 1223.42 378.628C1224.27 378.628 1224.79 378.229 1224.79 377.599C1224.79 376.78 1223.95 376.773 1223.04 376.773H1222.48V375.436H1223.04C1223.89 375.436 1224.53 375.317 1224.53 374.638C1224.53 374.036 1224.02 373.798 1223.41 373.798C1222.69 373.798 1221.94 374.155 1221.38 374.589L1220.43 373.441C1221.26 372.699 1222.33 372.23 1223.5 372.23C1224.95 372.23 1226.27 373 1226.27 374.484C1226.27 375.058 1226.09 375.562 1225.67 376.031C1226.21 376.409 1226.51 377.046 1226.51 377.767C1226.51 379.349 1225.11 380.21 1223.45 380.21ZM1229.36 380.21C1227.72 380.21 1226.83 379.174 1226.83 377.928C1226.83 376.829 1227.35 376.08 1228.55 375.667C1229.35 375.408 1230.52 375.247 1231.84 375.051C1231.78 374.183 1231.32 373.777 1230.29 373.777C1229.61 373.777 1228.89 374.064 1228.64 374.834L1227.1 374.351C1227.47 373.077 1228.51 372.23 1230.29 372.23C1231.64 372.23 1232.71 372.636 1233.2 373.637C1233.47 374.169 1233.49 374.708 1233.49 375.359V380H1232.01V378.985C1231.37 379.825 1230.57 380.21 1229.36 380.21ZM1228.48 377.907C1228.48 378.46 1228.9 378.866 1229.7 378.866C1230.85 378.866 1231.48 378.138 1231.65 377.613C1231.79 377.27 1231.81 376.787 1231.82 376.437C1230.61 376.626 1229.93 376.731 1229.4 376.913C1228.82 377.13 1228.48 377.417 1228.48 377.907ZM1236.5 380V372.44H1239.94C1240.44 372.44 1240.88 372.503 1241.19 372.587C1241.91 372.804 1242.57 373.406 1242.57 374.498C1242.57 375.142 1242.35 375.541 1242.01 375.814C1241.85 375.947 1241.68 376.045 1241.51 376.094C1241.69 376.122 1241.88 376.178 1242.03 376.255C1242.54 376.507 1242.94 376.962 1242.94 377.858C1242.94 378.873 1242.45 379.594 1241.5 379.867C1241.16 379.965 1240.68 380 1240.22 380H1236.5ZM1238.21 378.698H1240.1C1240.3 378.698 1240.55 378.663 1240.74 378.593C1241.07 378.474 1241.22 378.124 1241.22 377.788C1241.22 377.326 1240.95 377.06 1240.64 376.962C1240.45 376.885 1240.21 376.885 1240.07 376.885H1238.21V378.698ZM1238.21 375.562H1239.61C1239.89 375.562 1240.18 375.534 1240.38 375.45C1240.68 375.324 1240.83 375.016 1240.83 374.659C1240.83 374.288 1240.67 373.959 1240.32 373.847C1240.08 373.763 1239.67 373.763 1239.58 373.763H1238.21V375.562ZM1247.17 380.21C1246.39 380.21 1245.73 379.993 1245.22 379.615V383.36H1243.52V372.44H1245.01V372.986C1245.55 372.503 1246.25 372.23 1247.11 372.23C1249.25 372.23 1250.62 373.924 1250.62 376.22C1250.62 378.488 1249.26 380.21 1247.17 380.21ZM1245.01 376.22C1245.01 377.683 1245.55 378.698 1246.91 378.698C1248.23 378.698 1248.84 377.606 1248.84 376.22C1248.84 374.848 1248.21 373.742 1246.85 373.742C1245.57 373.742 1245.01 374.743 1245.01 376.22ZM1253.48 380.21C1251.83 380.21 1250.94 379.174 1250.94 377.928C1250.94 376.829 1251.47 376.08 1252.67 375.667C1253.46 375.408 1254.63 375.247 1255.96 375.051C1255.89 374.183 1255.44 373.777 1254.41 373.777C1253.73 373.777 1253.01 374.064 1252.76 374.834L1251.22 374.351C1251.59 373.077 1252.63 372.23 1254.41 372.23C1255.75 372.23 1256.82 372.636 1257.32 373.637C1257.59 374.169 1257.61 374.708 1257.61 375.359V380H1256.13V378.985C1255.49 379.825 1254.68 380.21 1253.48 380.21ZM1252.6 377.907C1252.6 378.46 1253.02 378.866 1253.81 378.866C1254.96 378.866 1255.6 378.138 1255.77 377.613C1255.91 377.27 1255.93 376.787 1255.93 376.437C1254.73 376.626 1254.04 376.731 1253.51 376.913C1252.93 377.13 1252.6 377.417 1252.6 377.907ZM1261.78 380.224C1259.61 380.196 1258.41 378.733 1258.24 376.402C1258.15 375.212 1258.3 373.42 1258.71 372.447C1258.99 371.789 1259.49 371.222 1260.04 370.844C1261.26 369.99 1262.99 370.032 1264.65 369.71L1264.8 371.201C1263.75 371.467 1261.89 371.383 1260.93 371.999C1260.25 372.419 1259.9 373.245 1259.84 374.092C1260.41 373.238 1261.35 372.923 1262.24 372.923C1264.25 372.923 1265.47 374.498 1265.47 376.507C1265.47 378.74 1263.96 380.245 1261.78 380.224ZM1260.02 376.577C1260.02 377.893 1260.68 378.642 1261.86 378.642C1263.07 378.642 1263.7 377.83 1263.7 376.577C1263.7 375.296 1263.03 374.512 1261.86 374.512C1260.66 374.512 1260.02 375.296 1260.02 376.577ZM1269.55 380.21C1267.27 380.21 1265.79 378.558 1265.79 376.22C1265.79 373.847 1267.32 372.23 1269.55 372.23C1271.83 372.23 1273.32 373.882 1273.32 376.22C1273.32 378.579 1271.81 380.21 1269.55 380.21ZM1267.58 376.22C1267.58 377.69 1268.25 378.628 1269.55 378.628C1270.89 378.628 1271.54 377.641 1271.54 376.22C1271.54 374.757 1270.87 373.812 1269.55 373.812C1268.19 373.812 1267.58 374.792 1267.58 376.22ZM1275.81 380V373.938H1273.28V372.44H1280.03V373.938H1277.5V380H1275.81ZM1281.31 383.36L1282.56 379.944L1279.5 372.44H1281.26L1283.37 377.851L1285.42 372.44H1287.11L1282.9 383.36H1281.31ZM1287.34 380V372.44H1290.78C1291.27 372.44 1291.71 372.503 1292.02 372.587C1292.75 372.804 1293.41 373.406 1293.41 374.498C1293.41 375.142 1293.18 375.541 1292.85 375.814C1292.69 375.947 1292.52 376.045 1292.35 376.094C1292.53 376.122 1292.72 376.178 1292.87 376.255C1293.38 376.507 1293.78 376.962 1293.78 377.858C1293.78 378.873 1293.28 379.594 1292.34 379.867C1291.99 379.965 1291.52 380 1291.06 380H1287.34ZM1289.05 378.698H1290.94C1291.13 378.698 1291.39 378.663 1291.57 378.593C1291.91 378.474 1292.06 378.124 1292.06 377.788C1292.06 377.326 1291.79 377.06 1291.48 376.962C1291.29 376.885 1291.04 376.885 1290.9 376.885H1289.05V378.698ZM1289.05 375.562H1290.45C1290.73 375.562 1291.02 375.534 1291.22 375.45C1291.52 375.324 1291.67 375.016 1291.67 374.659C1291.67 374.288 1291.51 373.959 1291.15 373.847C1290.92 373.763 1290.5 373.763 1290.41 373.763H1289.05V375.562ZM1296.49 380.21C1294.84 380.21 1293.95 379.174 1293.95 377.928C1293.95 376.829 1294.48 376.08 1295.68 375.667C1296.47 375.408 1297.64 375.247 1298.97 375.051C1298.9 374.183 1298.45 373.777 1297.42 373.777C1296.74 373.777 1296.02 374.064 1295.77 374.834L1294.23 374.351C1294.6 373.077 1295.64 372.23 1297.42 372.23C1298.76 372.23 1299.83 372.636 1300.33 373.637C1300.6 374.169 1300.62 374.708 1300.62 375.359V380H1299.14V378.985C1298.5 379.825 1297.69 380.21 1296.49 380.21ZM1295.61 377.907C1295.61 378.46 1296.03 378.866 1296.82 378.866C1297.97 378.866 1298.61 378.138 1298.78 377.613C1298.92 377.27 1298.94 376.787 1298.95 376.437C1297.74 376.626 1297.06 376.731 1296.52 376.913C1295.94 377.13 1295.61 377.417 1295.61 377.907ZM1301.63 380V372.44H1303.31V374.96H1305.87V372.44H1307.56V374.96H1308.4C1308.91 374.96 1309.34 374.96 1309.77 375.037C1310.94 375.261 1311.79 376.059 1311.79 377.466C1311.79 378.838 1310.99 379.671 1309.82 379.902C1309.33 380 1308.75 380 1308.42 380H1305.87V376.283H1303.31V380H1301.63ZM1307.56 378.677H1308.57C1308.78 378.677 1309.03 378.663 1309.27 378.6C1309.68 378.488 1310.08 378.075 1310.08 377.473C1310.08 376.864 1309.68 376.472 1309.23 376.353C1308.99 376.29 1308.73 376.283 1308.57 376.283H1307.56V378.677ZM1315.97 380.21C1313.67 380.21 1312.11 378.6 1312.11 376.304C1312.11 373.826 1313.64 372.23 1315.87 372.23C1318.21 372.23 1319.59 373.966 1319.39 376.689H1313.92C1314.05 377.935 1314.72 378.628 1315.87 378.628C1316.69 378.628 1317.31 378.25 1317.64 377.55L1319.31 378.054C1318.72 379.426 1317.42 380.21 1315.97 380.21ZM1313.96 375.415H1317.68C1317.53 374.232 1316.98 373.707 1315.94 373.707C1314.8 373.707 1314.15 374.295 1313.96 375.415Z" fill="white"/>
<path d="M87.1224 170.958V162.046L75.4974 168.375L61.2891 160.625L75.4974 152.875L89.7057 160.625V170.958H87.1224ZM75.4974 176.125L66.4557 171.217V164.758L75.4974 169.667L84.5391 164.758V171.217L75.4974 176.125Z" fill="#051238"/>
<path d="M547.458 249.416C546.748 249.416 546.14 249.163 545.634 248.657C545.128 248.152 544.875 247.543 544.875 246.833V228.75C544.875 228.039 545.128 227.431 545.634 226.925C546.14 226.419 546.748 226.166 547.458 226.166H548.75V223.583H551.333V226.166H561.667V223.583H564.25V226.166H565.542C566.252 226.166 566.86 226.419 567.366 226.925C567.872 227.431 568.125 228.039 568.125 228.75V236.5H565.542V233.916H547.458V246.833H556.5V249.416H547.458ZM565.542 252C563.97 252 562.598 251.51 561.424 250.53C560.251 249.551 559.514 248.318 559.212 246.833H561.215C561.494 247.78 562.027 248.555 562.813 249.158C563.599 249.761 564.508 250.062 565.542 250.062C566.79 250.062 567.856 249.621 568.739 248.738C569.621 247.856 570.062 246.79 570.062 245.541C570.062 244.293 569.621 243.227 568.739 242.344C567.856 241.462 566.79 241.021 565.542 241.021C564.917 241.021 564.336 241.134 563.798 241.36C563.26 241.586 562.786 241.903 562.377 242.312H564.25V244.25H559.083V239.083H561.021V240.924C561.602 240.364 562.28 239.917 563.055 239.584C563.83 239.25 564.659 239.083 565.542 239.083C567.328 239.083 568.852 239.713 570.111 240.972C571.37 242.231 572 243.755 572 245.541C572 247.328 571.37 248.851 570.111 250.111C568.852 251.37 567.328 252 565.542 252Z" fill="white"/>
<path d="M78.26 76V63.04H80.213L84.695 72.22L89.177 63.04H91.13V76H89.105V67.693L85.127 76H84.263L80.294 67.693V76H78.26ZM97.8614 76.27C94.9094 76.27 92.9024 74.2 92.9024 71.248C92.9024 68.062 94.8734 66.01 97.7354 66.01C100.75 66.01 102.514 68.242 102.262 71.743H95.2244C95.3954 73.345 96.2594 74.236 97.7354 74.236C98.7974 74.236 99.5894 73.75 100.012 72.85L102.154 73.498C101.407 75.262 99.7334 76.27 97.8614 76.27ZM95.2784 70.105H100.066C99.8774 68.584 99.1664 67.909 97.8254 67.909C96.3674 67.909 95.5304 68.665 95.2784 70.105ZM108.276 76.27C105.27 76.27 103.524 74.074 103.515 71.14C103.524 68.161 105.351 66.01 108.303 66.01C110.508 66.01 112.146 67.198 112.605 69.115L110.445 69.7C110.112 68.656 109.266 68.044 108.276 68.044C106.575 68.044 105.819 69.358 105.81 71.14C105.819 72.994 106.647 74.236 108.276 74.236C109.428 74.236 110.058 73.696 110.391 72.697L112.605 73.192C112.002 75.172 110.445 76.27 108.276 76.27ZM118.611 76.27C115.659 76.27 113.652 74.2 113.652 71.248C113.652 68.062 115.623 66.01 118.485 66.01C121.5 66.01 123.264 68.242 123.012 71.743H115.974C116.145 73.345 117.009 74.236 118.485 74.236C119.547 74.236 120.339 73.75 120.762 72.85L122.904 73.498C122.157 75.262 120.483 76.27 118.611 76.27ZM116.028 70.105H120.816C120.627 68.584 119.916 67.909 118.575 67.909C117.117 67.909 116.28 68.665 116.028 70.105ZM132.94 78.043V76H124.786V66.28H126.955V73.966H131.059V66.28H133.228V74.074H135.109V78.043H132.94ZM141.968 76V65.407L139.538 66.892V64.498L141.968 63.04H144.182V76H141.968Z" fill="#051238" fill-opacity="0.9"/>
<path d="M241.26 76V63.04H243.213L247.695 72.22L252.177 63.04H254.13V76H252.105V67.693L248.127 76H247.263L243.294 67.693V76H241.26ZM260.861 76.27C257.909 76.27 255.902 74.2 255.902 71.248C255.902 68.062 257.873 66.01 260.735 66.01C263.75 66.01 265.514 68.242 265.262 71.743H258.224C258.395 73.345 259.259 74.236 260.735 74.236C261.797 74.236 262.589 73.75 263.012 72.85L265.154 73.498C264.407 75.262 262.733 76.27 260.861 76.27ZM258.278 70.105H263.066C262.877 68.584 262.166 67.909 260.825 67.909C259.367 67.909 258.53 68.665 258.278 70.105ZM271.276 76.27C268.27 76.27 266.524 74.074 266.515 71.14C266.524 68.161 268.351 66.01 271.303 66.01C273.508 66.01 275.146 67.198 275.605 69.115L273.445 69.7C273.112 68.656 272.266 68.044 271.276 68.044C269.575 68.044 268.819 69.358 268.81 71.14C268.819 72.994 269.647 74.236 271.276 74.236C272.428 74.236 273.058 73.696 273.391 72.697L275.605 73.192C275.002 75.172 273.445 76.27 271.276 76.27ZM281.611 76.27C278.659 76.27 276.652 74.2 276.652 71.248C276.652 68.062 278.623 66.01 281.485 66.01C284.5 66.01 286.264 68.242 286.012 71.743H278.974C279.145 73.345 280.009 74.236 281.485 74.236C282.547 74.236 283.339 73.75 283.762 72.85L285.904 73.498C285.157 75.262 283.483 76.27 281.611 76.27ZM279.028 70.105H283.816C283.627 68.584 282.916 67.909 281.575 67.909C280.117 67.909 279.28 68.665 279.028 70.105ZM295.94 78.043V76H287.786V66.28H289.955V73.966H294.059V66.28H296.228V74.074H298.109V78.043H295.94ZM302.358 75.982V74.092L307.902 69.151C308.757 68.386 309.054 67.711 309.054 67.072C309.054 65.776 308.163 64.813 306.876 64.813C305.526 64.813 304.572 65.866 304.608 67.054H302.376C302.376 64.462 304.239 62.77 306.921 62.77C309.414 62.77 311.277 64.561 311.277 67.099C311.277 68.953 310.512 69.7 309.036 70.996L305.715 73.939H311.277V75.982H302.358Z" fill="#051238" fill-opacity="0.9"/>
<path d="M405.26 76V63.04H407.213L411.695 72.22L416.177 63.04H418.13V76H416.105V67.693L412.127 76H411.263L407.294 67.693V76H405.26ZM424.861 76.27C421.909 76.27 419.902 74.2 419.902 71.248C419.902 68.062 421.873 66.01 424.735 66.01C427.75 66.01 429.514 68.242 429.262 71.743H422.224C422.395 73.345 423.259 74.236 424.735 74.236C425.797 74.236 426.589 73.75 427.012 72.85L429.154 73.498C428.407 75.262 426.733 76.27 424.861 76.27ZM422.278 70.105H427.066C426.877 68.584 426.166 67.909 424.825 67.909C423.367 67.909 422.53 68.665 422.278 70.105ZM435.276 76.27C432.27 76.27 430.524 74.074 430.515 71.14C430.524 68.161 432.351 66.01 435.303 66.01C437.508 66.01 439.146 67.198 439.605 69.115L437.445 69.7C437.112 68.656 436.266 68.044 435.276 68.044C433.575 68.044 432.819 69.358 432.81 71.14C432.819 72.994 433.647 74.236 435.276 74.236C436.428 74.236 437.058 73.696 437.391 72.697L439.605 73.192C439.002 75.172 437.445 76.27 435.276 76.27ZM445.611 76.27C442.659 76.27 440.652 74.2 440.652 71.248C440.652 68.062 442.623 66.01 445.485 66.01C448.5 66.01 450.264 68.242 450.012 71.743H442.974C443.145 73.345 444.009 74.236 445.485 74.236C446.547 74.236 447.339 73.75 447.762 72.85L449.904 73.498C449.157 75.262 447.483 76.27 445.611 76.27ZM443.028 70.105H447.816C447.627 68.584 446.916 67.909 445.575 67.909C444.117 67.909 443.28 68.665 443.028 70.105ZM459.94 78.043V76H451.786V66.28H453.955V73.966H458.059V66.28H460.228V74.074H462.109V78.043H459.94ZM470.426 76.243C468.482 76.243 466.736 75.037 466.178 73.156L468.275 72.589C468.572 73.624 469.463 74.2 470.417 74.191C471.686 74.182 472.64 73.219 472.64 71.95C472.64 70.672 471.722 69.691 470.417 69.691C470.03 69.691 469.634 69.808 469.292 69.997L468.302 68.287L472.046 65.083H466.682V63.04H474.629V65.092L471.704 67.9C473.693 68.305 474.845 69.979 474.845 71.95C474.845 74.407 472.856 76.243 470.426 76.243Z" fill="#051238" fill-opacity="0.9"/>
<path d="M569.26 76V63.04H571.213L575.695 72.22L580.177 63.04H582.13V76H580.105V67.693L576.127 76H575.263L571.294 67.693V76H569.26ZM588.861 76.27C585.909 76.27 583.902 74.2 583.902 71.248C583.902 68.062 585.873 66.01 588.735 66.01C591.75 66.01 593.514 68.242 593.262 71.743H586.224C586.395 73.345 587.259 74.236 588.735 74.236C589.797 74.236 590.589 73.75 591.012 72.85L593.154 73.498C592.407 75.262 590.733 76.27 588.861 76.27ZM586.278 70.105H591.066C590.877 68.584 590.166 67.909 588.825 67.909C587.367 67.909 586.53 68.665 586.278 70.105ZM599.276 76.27C596.27 76.27 594.524 74.074 594.515 71.14C594.524 68.161 596.351 66.01 599.303 66.01C601.508 66.01 603.146 67.198 603.605 69.115L601.445 69.7C601.112 68.656 600.266 68.044 599.276 68.044C597.575 68.044 596.819 69.358 596.81 71.14C596.819 72.994 597.647 74.236 599.276 74.236C600.428 74.236 601.058 73.696 601.391 72.697L603.605 73.192C603.002 75.172 601.445 76.27 599.276 76.27ZM609.611 76.27C606.659 76.27 604.652 74.2 604.652 71.248C604.652 68.062 606.623 66.01 609.485 66.01C612.5 66.01 614.264 68.242 614.012 71.743H606.974C607.145 73.345 608.009 74.236 609.485 74.236C610.547 74.236 611.339 73.75 611.762 72.85L613.904 73.498C613.157 75.262 611.483 76.27 609.611 76.27ZM607.028 70.105H611.816C611.627 68.584 610.916 67.909 609.575 67.909C608.117 67.909 607.28 68.665 607.028 70.105ZM623.94 78.043V76H615.786V66.28H617.955V73.966H622.059V66.28H624.228V74.074H626.109V78.043H623.94ZM636.1 76V73.858H630.358V71.833L634.507 63.04H636.982L632.833 71.833H636.1V68.458H638.296V71.833H639.511V73.858H638.296V76H636.1Z" fill="#051238" fill-opacity="0.9"/>
<path d="M732.26 76V63.04H734.213L738.695 72.22L743.177 63.04H745.13V76H743.105V67.693L739.127 76H738.263L734.294 67.693V76H732.26ZM751.861 76.27C748.909 76.27 746.902 74.2 746.902 71.248C746.902 68.062 748.873 66.01 751.735 66.01C754.75 66.01 756.514 68.242 756.262 71.743H749.224C749.395 73.345 750.259 74.236 751.735 74.236C752.797 74.236 753.589 73.75 754.012 72.85L756.154 73.498C755.407 75.262 753.733 76.27 751.861 76.27ZM749.278 70.105H754.066C753.877 68.584 753.166 67.909 751.825 67.909C750.367 67.909 749.53 68.665 749.278 70.105ZM762.276 76.27C759.27 76.27 757.524 74.074 757.515 71.14C757.524 68.161 759.351 66.01 762.303 66.01C764.508 66.01 766.146 67.198 766.605 69.115L764.445 69.7C764.112 68.656 763.266 68.044 762.276 68.044C760.575 68.044 759.819 69.358 759.81 71.14C759.819 72.994 760.647 74.236 762.276 74.236C763.428 74.236 764.058 73.696 764.391 72.697L766.605 73.192C766.002 75.172 764.445 76.27 762.276 76.27ZM772.611 76.27C769.659 76.27 767.652 74.2 767.652 71.248C767.652 68.062 769.623 66.01 772.485 66.01C775.5 66.01 777.264 68.242 777.012 71.743H769.974C770.145 73.345 771.009 74.236 772.485 74.236C773.547 74.236 774.339 73.75 774.762 72.85L776.904 73.498C776.157 75.262 774.483 76.27 772.611 76.27ZM770.028 70.105H774.816C774.627 68.584 773.916 67.909 772.575 67.909C771.117 67.909 770.28 68.665 770.028 70.105ZM786.94 78.043V76H778.786V66.28H780.955V73.966H785.059V66.28H787.228V74.074H789.109V78.043H786.94ZM797.561 76.27C795.59 76.27 793.889 74.965 793.358 73.057L795.446 72.499C795.707 73.543 796.67 74.191 797.642 74.191C798.911 74.191 799.928 73.165 799.928 71.914C799.928 70.654 798.884 69.646 797.642 69.646C796.643 69.646 796.004 70.087 795.653 70.492L793.799 69.898L794.195 63.04H801.233V65.074H796.121L795.923 68.26C796.544 67.882 797.282 67.684 797.939 67.684C800.369 67.684 802.106 69.484 802.106 71.914C802.106 74.344 800 76.27 797.561 76.27Z" fill="#051238" fill-opacity="0.9"/>
<path d="M896.26 76V63.04H898.213L902.695 72.22L907.177 63.04H909.13V76H907.105V67.693L903.127 76H902.263L898.294 67.693V76H896.26ZM915.861 76.27C912.909 76.27 910.902 74.2 910.902 71.248C910.902 68.062 912.873 66.01 915.735 66.01C918.75 66.01 920.514 68.242 920.262 71.743H913.224C913.395 73.345 914.259 74.236 915.735 74.236C916.797 74.236 917.589 73.75 918.012 72.85L920.154 73.498C919.407 75.262 917.733 76.27 915.861 76.27ZM913.278 70.105H918.066C917.877 68.584 917.166 67.909 915.825 67.909C914.367 67.909 913.53 68.665 913.278 70.105ZM926.276 76.27C923.27 76.27 921.524 74.074 921.515 71.14C921.524 68.161 923.351 66.01 926.303 66.01C928.508 66.01 930.146 67.198 930.605 69.115L928.445 69.7C928.112 68.656 927.266 68.044 926.276 68.044C924.575 68.044 923.819 69.358 923.81 71.14C923.819 72.994 924.647 74.236 926.276 74.236C927.428 74.236 928.058 73.696 928.391 72.697L930.605 73.192C930.002 75.172 928.445 76.27 926.276 76.27ZM936.611 76.27C933.659 76.27 931.652 74.2 931.652 71.248C931.652 68.062 933.623 66.01 936.485 66.01C939.5 66.01 941.264 68.242 941.012 71.743H933.974C934.145 73.345 935.009 74.236 936.485 74.236C937.547 74.236 938.339 73.75 938.762 72.85L940.904 73.498C940.157 75.262 938.483 76.27 936.611 76.27ZM934.028 70.105H938.816C938.627 68.584 937.916 67.909 936.575 67.909C935.117 67.909 934.28 68.665 934.028 70.105ZM950.94 78.043V76H942.786V66.28H944.955V73.966H949.059V66.28H951.228V74.074H953.109V78.043H950.94ZM962.2 76.27C959.662 76.27 957.718 74.326 957.718 71.572V67.63C957.718 64.687 959.617 62.788 962.443 62.788C963.757 62.788 964.954 63.211 965.872 64.165L964.306 65.686C963.847 65.146 963.154 64.813 962.443 64.813C960.931 64.813 959.932 66.019 959.932 67.333V68.647C960.643 68.035 961.561 67.675 962.515 67.675C964.954 67.675 966.691 69.484 966.691 71.923C966.691 74.353 964.639 76.27 962.2 76.27ZM959.932 71.923C959.932 73.147 960.94 74.191 962.2 74.191C963.46 74.191 964.495 73.183 964.495 71.923C964.495 70.663 963.478 69.628 962.218 69.628C960.958 69.628 959.932 70.663 959.932 71.923Z" fill="#051238" fill-opacity="0.9"/>
<path d="M1060.26 76V63.04H1062.21L1066.7 72.22L1071.18 63.04H1073.13V76H1071.11V67.693L1067.13 76H1066.26L1062.29 67.693V76H1060.26ZM1079.86 76.27C1076.91 76.27 1074.9 74.2 1074.9 71.248C1074.9 68.062 1076.87 66.01 1079.74 66.01C1082.75 66.01 1084.51 68.242 1084.26 71.743H1077.22C1077.4 73.345 1078.26 74.236 1079.74 74.236C1080.8 74.236 1081.59 73.75 1082.01 72.85L1084.15 73.498C1083.41 75.262 1081.73 76.27 1079.86 76.27ZM1077.28 70.105H1082.07C1081.88 68.584 1081.17 67.909 1079.83 67.909C1078.37 67.909 1077.53 68.665 1077.28 70.105ZM1090.28 76.27C1087.27 76.27 1085.52 74.074 1085.51 71.14C1085.52 68.161 1087.35 66.01 1090.3 66.01C1092.51 66.01 1094.15 67.198 1094.6 69.115L1092.44 69.7C1092.11 68.656 1091.27 68.044 1090.28 68.044C1088.57 68.044 1087.82 69.358 1087.81 71.14C1087.82 72.994 1088.65 74.236 1090.28 74.236C1091.43 74.236 1092.06 73.696 1092.39 72.697L1094.6 73.192C1094 75.172 1092.44 76.27 1090.28 76.27ZM1100.61 76.27C1097.66 76.27 1095.65 74.2 1095.65 71.248C1095.65 68.062 1097.62 66.01 1100.49 66.01C1103.5 66.01 1105.26 68.242 1105.01 71.743H1097.97C1098.15 73.345 1099.01 74.236 1100.49 74.236C1101.55 74.236 1102.34 73.75 1102.76 72.85L1104.9 73.498C1104.16 75.262 1102.48 76.27 1100.61 76.27ZM1098.03 70.105H1102.82C1102.63 68.584 1101.92 67.909 1100.58 67.909C1099.12 67.909 1098.28 68.665 1098.03 70.105ZM1114.94 78.043V76H1106.79V66.28H1108.96V73.966H1113.06V66.28H1115.23V74.074H1117.11V78.043H1114.94ZM1122.37 76L1126.84 65.092H1121.18V63.04H1129.16V65.092L1124.71 76H1122.37Z" fill="#051238" fill-opacity="0.9"/>
<path d="M1224.26 76V63.04H1226.21L1230.7 72.22L1235.18 63.04H1237.13V76H1235.11V67.693L1231.13 76H1230.26L1226.29 67.693V76H1224.26ZM1243.86 76.27C1240.91 76.27 1238.9 74.2 1238.9 71.248C1238.9 68.062 1240.87 66.01 1243.74 66.01C1246.75 66.01 1248.51 68.242 1248.26 71.743H1241.22C1241.4 73.345 1242.26 74.236 1243.74 74.236C1244.8 74.236 1245.59 73.75 1246.01 72.85L1248.15 73.498C1247.41 75.262 1245.73 76.27 1243.86 76.27ZM1241.28 70.105H1246.07C1245.88 68.584 1245.17 67.909 1243.83 67.909C1242.37 67.909 1241.53 68.665 1241.28 70.105ZM1254.28 76.27C1251.27 76.27 1249.52 74.074 1249.51 71.14C1249.52 68.161 1251.35 66.01 1254.3 66.01C1256.51 66.01 1258.15 67.198 1258.6 69.115L1256.44 69.7C1256.11 68.656 1255.27 68.044 1254.28 68.044C1252.57 68.044 1251.82 69.358 1251.81 71.14C1251.82 72.994 1252.65 74.236 1254.28 74.236C1255.43 74.236 1256.06 73.696 1256.39 72.697L1258.6 73.192C1258 75.172 1256.44 76.27 1254.28 76.27ZM1264.61 76.27C1261.66 76.27 1259.65 74.2 1259.65 71.248C1259.65 68.062 1261.62 66.01 1264.49 66.01C1267.5 66.01 1269.26 68.242 1269.01 71.743H1261.97C1262.15 73.345 1263.01 74.236 1264.49 74.236C1265.55 74.236 1266.34 73.75 1266.76 72.85L1268.9 73.498C1268.16 75.262 1266.48 76.27 1264.61 76.27ZM1262.03 70.105H1266.82C1266.63 68.584 1265.92 67.909 1264.58 67.909C1263.12 67.909 1262.28 68.665 1262.03 70.105ZM1278.94 78.043V76H1270.79V66.28H1272.96V73.966H1277.06V66.28H1279.23V74.074H1281.11V78.043H1278.94ZM1289.96 76.27C1287.38 76.27 1285.54 74.578 1285.54 72.175C1285.54 70.933 1286.04 69.799 1287 69.043C1286.28 68.341 1285.87 67.477 1285.87 66.433C1285.87 64.21 1287.56 62.77 1289.96 62.77C1292.35 62.77 1294.05 64.21 1294.05 66.433C1294.05 67.468 1293.68 68.323 1292.94 69.043C1293.88 69.781 1294.4 70.933 1294.4 72.175C1294.4 74.578 1292.54 76.27 1289.96 76.27ZM1287.83 72.175C1287.83 73.516 1288.69 74.227 1289.96 74.227C1291.23 74.227 1292.11 73.516 1292.11 72.175C1292.11 70.843 1291.23 70.114 1289.96 70.114C1288.68 70.114 1287.83 70.843 1287.83 72.175ZM1288.17 66.433C1288.17 67.531 1288.89 68.053 1289.96 68.053C1291.02 68.053 1291.76 67.531 1291.76 66.433C1291.76 65.344 1291.02 64.813 1289.96 64.813C1288.89 64.813 1288.17 65.344 1288.17 66.433Z" fill="#051238" fill-opacity="0.9"/>
<defs>
<filter id="filter0_d_626_579" x="0" y="0" width="1372" height="486" filterUnits="userSpaceOnUse" color-interpolation-filters="sRGB">
<feFlood flood-opacity="0" result="BackgroundImageFix"/>
<feColorMatrix in="SourceAlpha" type="matrix" values="0 0 0 0 0 0 0 0 0 0 0 0 0 0 0 0 0 0 127 0" result="hardAlpha"/>
<feOffset dy="4"/>
<feGaussianBlur stdDeviation="15"/>
<feComposite in2="hardAlpha" operator="out"/>
<feColorMatrix type="matrix" values="0 0 0 0 0.396078 0 0 0 0 0.466667 0 0 0 0 0.513726 0 0 0 0.1 0"/>
<feBlend mode="normal" in2="BackgroundImageFix" result="effect1_dropShadow_626_579"/>
<feBlend mode="normal" in="SourceGraphic" in2="effect1_dropShadow_626_579" result="shape"/>
</filter>
<linearGradient id="paint0_linear_626_579" x1="193.5" y1="104" x2="193.5" y2="450" gradientUnits="userSpaceOnUse">
<stop stop-color="#051238" stop-opacity="0.03"/>
<stop offset="0.9999" stop-color="white"/>
<stop offset="1" stop-color="#666666"/>
</linearGradient>
<linearGradient id="paint1_linear_626_579" x1="357.5" y1="104" x2="357.5" y2="450" gradientUnits="userSpaceOnUse">
<stop stop-color="#051238" stop-opacity="0.03"/>
<stop offset="0.9999" stop-color="white"/>
<stop offset="1" stop-color="#666666"/>
</linearGradient>
<linearGradient id="paint2_linear_626_579" x1="521.5" y1="104" x2="521.5" y2="450" gradientUnits="userSpaceOnUse">
<stop stop-color="#051238" stop-opacity="0.03"/>
<stop offset="0.9999" stop-color="white"/>
<stop offset="1" stop-color="#666666"/>
</linearGradient>
<linearGradient id="paint3_linear_626_579" x1="685.5" y1="104" x2="685.5" y2="450" gradientUnits="userSpaceOnUse">
<stop stop-color="#051238" stop-opacity="0.03"/>
<stop offset="0.9999" stop-color="white"/>
<stop offset="1" stop-color="#666666"/>
</linearGradient>
<linearGradient id="paint4_linear_626_579" x1="848.5" y1="104" x2="848.5" y2="450" gradientUnits="userSpaceOnUse">
<stop stop-color="#051238" stop-opacity="0.03"/>
<stop offset="0.9999" stop-color="white"/>
<stop offset="1" stop-color="#666666"/>
</linearGradient>
<linearGradient id="paint5_linear_626_579" x1="1012.5" y1="104" x2="1012.5" y2="450" gradientUnits="userSpaceOnUse">
<stop stop-color="#051238" stop-opacity="0.03"/>
<stop offset="0.9999" stop-color="white"/>
<stop offset="1" stop-color="#666666"/>
</linearGradient>
<linearGradient id="paint6_linear_626_579" x1="1176.5" y1="104" x2="1176.5" y2="450" gradientUnits="userSpaceOnUse">
<stop stop-color="#051238" stop-opacity="0.03"/>
<stop offset="0.9999" stop-color="white"/>
<stop offset="1" stop-color="#666666"/>
</linearGradient>
</defs>
</svg>
