<svg width="182" height="37" viewBox="0 0 182 37" fill="none" xmlns="http://www.w3.org/2000/svg">
<g id="Group 1000000788">
<g id="Group 1000000786">
<path id="Path 553" fill-rule="evenodd" clip-rule="evenodd" d="M36.2942 18.5227C36.2942 28.4443 28.2385 36.5 18.3169 36.5C8.34969 36.5 0.293976 28.4443 0.293976 18.5227C0.293976 8.55549 8.34969 0.5 18.3169 0.5C28.2385 0.5 36.2942 8.55549 36.2942 18.5227ZM26.8276 17.2484L24.7796 14.2448C24.1879 14.6544 23.6873 14.9272 23.2777 15.1093V9.28377H19.6367V14.9275C19.3333 14.8364 18.9995 14.7606 18.6354 14.6999C17.9527 14.5634 17.27 14.5633 16.5418 14.6088V9.28377H12.9464V15.3826C11.7176 15.8377 10.6253 16.4292 9.76054 17.0209L11.9451 19.9338C12.2485 19.7214 12.5823 19.5243 12.9464 19.3422V27.7162H16.5418V18.2044C17.0425 18.1589 17.5431 18.1587 17.9982 18.2498C18.3623 18.3408 18.7719 18.4319 19.1816 18.5684C19.3333 18.5988 19.485 18.6442 19.6367 18.7049V23.8935H23.2777V18.8871C24.2789 18.6596 25.4623 18.1587 26.8276 17.2484ZM43.4396 15.3368C44.1678 14.0928 45.1539 13.1221 46.3979 12.4243C47.6116 11.7264 48.992 11.3776 50.5394 11.3776C52.3296 11.3776 53.9074 11.8327 55.2728 12.743C56.6078 13.6532 57.5484 14.9273 58.0945 16.5657H54.3625C53.9984 15.8072 53.4826 15.2308 52.8151 14.8364C52.1475 14.4419 51.3739 14.2448 50.494 14.2448C49.5534 14.2448 48.719 14.4723 47.9908 14.9275C47.2626 15.3522 46.7013 15.9741 46.3069 16.7933C45.9124 17.5822 45.7152 18.5079 45.7152 19.5698C45.7152 20.6318 45.9124 21.572 46.3069 22.3912C46.7013 23.1801 47.2626 23.8024 47.9908 24.2575C48.719 24.6823 49.5534 24.8944 50.494 24.8944C51.3739 24.8944 52.1475 24.6973 52.8151 24.3028C53.4826 23.9084 53.9984 23.332 54.3625 22.5734H58.0945C57.5484 24.2119 56.6078 25.4864 55.2728 26.3966C53.9378 27.3069 52.3599 27.762 50.5394 27.762C48.992 27.762 47.6116 27.4127 46.3979 26.7149C45.1539 26.017 44.1678 25.0464 43.4396 23.8024C42.7417 22.5584 42.3928 21.1476 42.3928 19.5698C42.3928 17.992 42.7417 16.5808 43.4396 15.3368ZM64.5572 15.2915C65.2247 14.897 65.9985 14.6999 66.8784 14.6999V18.0675H66.0136C65.0123 18.0675 64.2538 18.3105 63.738 18.796C63.2222 19.2815 62.9643 20.1159 62.9643 21.2992V27.6251H59.733V14.8817H62.9643V16.8844C63.3587 16.1866 63.8897 15.6556 64.5572 15.2915ZM79.8038 22.2094H70.4738C70.5648 23.15 70.8986 23.8781 71.4751 24.3939C72.0212 24.9097 72.7191 25.1677 73.5687 25.1677C74.752 25.1677 75.6016 24.6517 76.1174 23.6201H79.5763C79.2122 24.8641 78.5144 25.8807 77.4828 26.6695C76.4208 27.4584 75.1313 27.8527 73.6142 27.8527C72.4006 27.8527 71.3082 27.5797 70.3373 27.0335C69.336 26.4874 68.5623 25.7139 68.0162 24.7126C67.5004 23.7113 67.2425 22.5581 67.2425 21.2534C67.2425 19.9487 67.5004 18.7959 68.0162 17.7946C68.5623 16.7934 69.3209 16.0198 70.2918 15.4737C71.2627 14.9276 72.3702 14.6541 73.6142 14.6541C74.8279 14.6541 75.9202 14.9276 76.8911 15.4737C77.8317 15.9895 78.575 16.7176 79.1211 17.6582C79.6369 18.6291 79.8948 19.7365 79.8948 20.9805C79.8948 21.4356 79.8645 21.8453 79.8038 22.2094ZM76.5725 20.0703C76.5422 19.251 76.2388 18.5834 75.6623 18.0675C75.0858 17.5821 74.3727 17.3395 73.5231 17.3395C72.7342 17.3395 72.0668 17.5821 71.5206 18.0675C70.9745 18.553 70.6407 19.2207 70.5194 20.0703H76.5725ZM81.5789 17.7946C82.0947 16.7934 82.7925 16.0198 83.6724 15.4737C84.5523 14.9276 85.5384 14.6541 86.6307 14.6541C87.5713 14.6541 88.4056 14.8517 89.1338 15.2461C89.8317 15.6406 90.393 16.1257 90.8178 16.7022V14.8817H94.0947V27.6251H90.8178V25.7593C90.4233 26.3661 89.862 26.8667 89.1338 27.2611C88.4056 27.6555 87.5561 27.8527 86.5852 27.8527C85.5233 27.8527 84.5523 27.5797 83.6724 27.0335C82.7925 26.4571 82.0947 25.6681 81.5789 24.6668C81.0631 23.6656 80.8051 22.5128 80.8051 21.2081C80.8051 19.9337 81.0631 18.7959 81.5789 17.7946ZM90.3626 19.2511C90.0592 18.6746 89.6496 18.25 89.1338 17.9769C88.618 17.6735 88.0567 17.5218 87.4499 17.5218C86.8431 17.5218 86.2818 17.658 85.766 17.9311C85.2805 18.2345 84.8709 18.6592 84.5372 19.2054C84.2337 19.7818 84.082 20.4495 84.082 21.2081C84.082 21.9666 84.2337 22.6343 84.5372 23.2108C84.8709 23.7873 85.2956 24.2424 85.8114 24.5762C86.3272 24.8796 86.8734 25.0313 87.4499 25.0313C88.0567 25.0313 88.618 24.8796 89.1338 24.5762C89.6496 24.2727 90.0592 23.8326 90.3626 23.2561C90.6661 22.71 90.8178 22.0423 90.8178 21.2534C90.8178 20.4645 90.6661 19.7973 90.3626 19.2511ZM100.239 17.5218V23.7112C100.239 24.136 100.33 24.4394 100.512 24.6215C100.724 24.8339 101.073 24.9402 101.559 24.9402H103.061V27.6251H101.058C98.3273 27.6251 96.9619 26.3056 96.9619 23.6659V17.5218H95.4601V14.8817H96.9619V11.7416H100.239V14.8817H103.061V17.5218H100.239ZM104.927 12.8336C104.562 12.4695 104.38 12.0144 104.38 11.4683C104.38 10.9221 104.562 10.4824 104.927 10.1487C105.291 9.78458 105.761 9.60245 106.337 9.60245C106.914 9.60245 107.384 9.78458 107.748 10.1487C108.143 10.4824 108.34 10.9221 108.34 11.4683C108.34 12.0144 108.143 12.4695 107.748 12.8336C107.384 13.1977 106.914 13.3799 106.337 13.3799C105.761 13.3799 105.291 13.1977 104.927 12.8336ZM107.93 27.6251H104.699V14.8817H107.93V27.6251ZM115.576 24.6668L118.762 14.8817H122.221L117.488 27.6251H113.574L108.886 14.8817H112.345L115.576 24.6668Z" fill="#051238"/>
<path id="Path 554" fill-rule="evenodd" clip-rule="evenodd" d="M134.373 22.2096H125.043C125.134 23.1502 125.453 23.8783 125.999 24.3941C126.575 24.9099 127.273 25.1679 128.093 25.1679C129.306 25.1679 130.156 24.6519 130.641 23.6203H134.146C133.782 24.8643 133.069 25.8809 132.007 26.6697C130.975 27.4586 129.701 27.8529 128.184 27.8529C126.94 27.8529 125.832 27.5799 124.861 27.0337C123.89 26.4876 123.132 25.7141 122.586 24.7128C122.039 23.7115 121.766 22.5583 121.766 21.2536C121.766 19.9489 122.039 18.7961 122.586 17.7948C123.132 16.7936 123.875 16.02 124.816 15.4739C125.787 14.9278 126.909 14.6543 128.184 14.6543C129.397 14.6543 130.474 14.9278 131.415 15.4739C132.386 15.9897 133.144 16.7178 133.691 17.6584C134.206 18.6293 134.464 19.7367 134.464 20.9807C134.464 21.4358 134.434 21.8455 134.373 22.2096ZM131.142 20.0705C131.112 19.2512 130.808 18.5835 130.232 18.0677C129.655 17.5823 128.942 17.3397 128.093 17.3397C127.273 17.3397 126.606 17.5823 126.09 18.0677C125.544 18.5532 125.195 19.2209 125.043 20.0705H131.142ZM153.352 11.5596V27.6253H150.12V20.7985H143.248V27.6253H140.017V11.5596H143.248V18.1589H150.12V11.5596H153.352ZM167.006 14.8819V27.6253H163.774V26.0324C163.349 26.5785 162.803 27.0187 162.136 27.3524C161.468 27.6558 160.74 27.8075 159.951 27.8075C158.95 27.8075 158.07 27.595 157.311 27.1702C156.553 26.7454 155.946 26.1236 155.491 25.3044C155.066 24.4851 154.854 23.499 154.854 22.3461V14.8819H158.085V21.8909C158.085 22.9226 158.328 23.7115 158.813 24.2577C159.329 24.8038 160.027 25.0768 160.907 25.0768C161.787 25.0768 162.485 24.8038 163 24.2577C163.516 23.7115 163.774 22.9226 163.774 21.8909V14.8819H167.006ZM173.377 15.2463C174.105 14.8519 174.94 14.6543 175.88 14.6543C176.973 14.6543 177.959 14.9278 178.839 15.4739C179.719 16.02 180.416 16.7936 180.932 17.7948C181.448 18.7658 181.706 19.9036 181.706 21.2083C181.706 22.5129 181.448 23.6657 180.932 24.667C180.416 25.6683 179.719 26.4573 178.839 27.0337C177.959 27.5799 176.973 27.8529 175.88 27.8529C174.909 27.8529 174.075 27.6712 173.377 27.3071C172.649 26.9126 172.073 26.4117 171.648 25.8048V27.6253H168.416V10.604H171.648V16.7482C172.073 16.1413 172.649 15.6408 173.377 15.2463ZM177.928 19.2055C177.625 18.6594 177.215 18.2347 176.7 17.9313C176.184 17.6582 175.622 17.522 175.016 17.522C174.439 17.522 173.893 17.6737 173.377 17.9771C172.861 18.2501 172.437 18.6748 172.103 19.2513C171.799 19.8278 171.648 20.4951 171.648 21.2536C171.648 22.0121 171.799 22.6798 172.103 23.2563C172.437 23.8328 172.861 24.2729 173.377 24.5763C173.893 24.8798 174.439 25.0315 175.016 25.0315C175.622 25.0315 176.184 24.8798 176.7 24.5763C177.215 24.2426 177.625 23.8025 177.928 23.2563C178.232 22.6798 178.384 21.9971 178.384 21.2083C178.384 20.4497 178.232 19.782 177.928 19.2055Z" fill="#051238"/>
</g>
<path id="Path 555" d="M23.2775 18.887V23.8934H19.6366V18.7048C19.4849 18.6441 19.3332 18.5987 19.1814 18.5684C18.7718 18.4318 18.3622 18.3407 17.9981 18.2497C17.543 18.1587 17.0423 18.1588 16.5417 18.2044V27.7161H12.9463V19.3422C12.5822 19.5242 12.2484 19.7213 11.945 19.9337L9.76044 17.0208C10.6252 16.4291 11.7175 15.8376 12.9463 15.3825V9.28369H16.5417V14.6087C17.2699 14.5632 17.9526 14.5633 18.6353 14.6998C18.9994 14.7605 19.3332 14.8364 19.6366 14.9274V9.28369H23.2775V15.1092C23.6872 14.9271 24.1878 14.6543 24.7795 14.2447L26.8275 17.2483C25.4622 18.1586 24.2788 18.6595 23.2775 18.887Z" fill="#00FF94"/>
</g>
</svg>
